<svg fill="none" height="381" viewBox="0 0 581 381" width="581" xmlns="http://www.w3.org/2000/svg"><g fill="#e0e7ec"><path d="m153.941 89.0039-3.484 19.2051c-.977 5.574-2.033 10.371-3.196 14.408-1.164 4.029-3.103 9.409-5.811 16.131l-39.206 93.901h-21.1971l-8.0379-98.641-1.257-15.428-43.5799 113.293h-21.1973l-6.9748-142.8691h19.7535l3.4838 109.4581 46.173-108.6821h18.6042l7.8435 111.1881 27.878-69.704c2.126-4.991 3.728-9.222 4.791-12.676 1.063-3.455 1.983-7.391 2.758-11.815l3.197-17.7691z"/><path d="m187.4 235.4c-8.667 0-16.267-1.867-22.8-5.6s-11.6-9.067-15.2-16-5.4-15.067-5.4-24.4c0-10.667 2.267-20.4 6.8-29.2 4.667-8.8 11.133-15.8 19.4-21s17.8-7.8 28.6-7.8c8.667 0 16.2 1.867 22.6 5.6 6.533 3.733 11.6 9.067 15.2 16s5.4 15.067 5.4 24.4c0 10.667-2.333 20.4-7 29.2-4.533 8.8-10.933 15.8-19.2 21-8.133 5.2-17.6 7.8-28.4 7.8zm.4-16c7.733 0 14.333-1.8 19.8-5.4 5.6-3.6 9.867-8.467 12.8-14.6s4.4-12.933 4.4-20.4c0-10.533-2.467-18.4-7.4-23.6-4.933-5.333-11.333-8-19.2-8-7.733 0-14.4 1.8-20 5.4-5.467 3.6-9.667 8.467-12.6 14.6s-4.4 12.933-4.4 20.4c0 10.8 2.467 18.8 7.4 24 4.933 5.067 11.333 7.6 19.2 7.6zm63.322 13.6 14-79.4c.533-3.6-1.067-5.4-4.8-5.4h-3.6l2.8-14.4h11.2c3.467 0 6.2.933 8.2 2.8s3 4.467 3 7.8v.4h.8c4.267-8.933 11.467-13.4 21.6-13.4 10.533 0 16.867 4.533 19 13.6h.6c1.867-4 4.733-7.267 8.6-9.8s8.6-3.8 14.2-3.8c7.467 0 13.067 2.667 16.8 8 3.867 5.333 5.133 12.067 3.8 20.2l-13.2 73.4h-16.4l12.6-70.8c.8-4.667.267-8.4-1.6-11.2-1.733-2.933-4.6-4.4-8.6-4.4-4.267 0-8 1.667-11.2 5-3.067 3.333-5.133 8.067-6.2 14.2l-12 67.2h-16.2l12.4-70.8c.8-4.667.267-8.4-1.6-11.2-1.733-2.933-4.6-4.4-8.6-4.4-4.4 0-8.133 1.667-11.2 5s-5.133 8.067-6.2 14.2l-12 67.2zm168.922 2.4c-8.4 0-15.8-1.867-22.2-5.6-6.267-3.733-11.2-9.067-14.8-16-3.467-7.067-5.2-15.467-5.2-25.2 0-10.667 2.4-20.333 7.2-29s11.4-15.533 19.8-20.6c8.533-5.067 18.266-7.6 29.2-7.6 9.066 0 16.533 1.733 22.4 5.2 6 3.467 10.466 8.133 13.4 14 3.066 5.867 4.6 12.4 4.6 19.6 0 2.533-.267 5.4-.8 8.6-.534 3.2-1.134 6-1.8 8.4h-77.2v.4c0 10.667 2.533 18.733 7.6 24.2 5.2 5.467 11.666 8.2 19.4 8.2 6.933 0 12.733-1.533 17.4-4.6 4.8-3.067 8.466-7.333 11-12.8h16.6c-3.6 9.867-9.067 17.8-16.4 23.8-7.334 6-17.4 9-30.2 9zm12.2-89c-9.2 0-16.867 2.533-23 7.6-6 4.933-10.2 11.267-12.6 19h61.4c.133-.533.2-1.133.2-1.8s0-1.267 0-1.8c0-7.333-2.334-13-7-17-4.667-4-11-6-19-6zm51.322 86.6 14-79c.8-3.867-.734-5.8-4.6-5.8h-9.8l2.6-14.4h16.4c4 0 7.066 1 9.2 3 2.133 2 3.2 4.733 3.2 8.2v2.2h.8c3.2-4.4 7.533-8.133 13-11.2 5.6-3.067 12.333-4.6 20.2-4.6 8.266 0 14.933 1.933 20 5.8 5.2 3.733 8.733 8.867 10.6 15.4 1.866 6.4 2.066 13.467.6 21.2l-10.4 59.2h-16.8l10.2-57.6c1.466-8.267.533-15.133-2.8-20.6-3.334-5.6-9.134-8.4-17.4-8.4-8 0-15 2.867-21 8.6-5.867 5.6-9.734 13.467-11.6 23.6l-9.6 54.4z"/><path d="m34.9 2.00019c0-.6667.3333-1 1-1h7.6c.6666 0 1 .3333 1 1v68.00001c0 .6667-.3334 1-1 1h-8c-.6 0-1-.2333-1.2001-.7l-24.0999-48.5c-.1333-.1333-.26675-.2-.40005-.2-.0667 0-.1.1-.1.3l.1 48.1c0 .6667-.3333 1-1 1h-7.6c-.666669 0-.999999-.3333-.999999-1v-68.00001c0-.6667.33333-1 .999999-1h8c.6 0 1.00005.23331 1.20005.70001l24 48.5c.1333.1333.2333.2.3.2.1333 0 .2-.1.2-.3zm38.6914 68.90001c-.6667 0-1-.3333-1-1v-28.4c0-.2667-.0333-.4333-.1-.5l-17.4-38.8-.1-.40001c0-.5333.3-.8.8999-.8h8.1001c.5333 0 .9.2667 1.1.8l12 28.40001c.0667.1333.1667.2.3.2s.2332-.0667.3-.2l11.9-28.40001c.2-.5333.5667-.8 1.1-.8h8.1996c.334 0 .567.1333.7.4.2.2.234.46671.1.80001l-17.4996 38.8c-.0668.0667-.1.2333-.1.5v28.4c0 .6667-.3333 1-1 1zm54.0216.9c-4.2 0-7.934-.8333-11.2-2.5-3.2-1.7333-5.7-4.1333-7.5-7.2-1.734-3.1333-2.6-6.7333-2.6-10.8v-30.7c0-6.2 1.933-11.13331 5.8-14.80001 3.933-3.7333 9.1-5.599995 15.5-5.599995s11.533 1.833305 15.4 5.500005c3.866 3.6667 5.8 8.5333 5.8 14.6v.8c0 .3333-.1.6-.3.8s-.434.3-.7.3l-7.6.4c-.667 0-1-.3333-1-1v-1.5c0-3.4667-1.067-6.2667-3.2-8.4-2.134-2.1333-4.934-3.20001-8.4-3.20001-3.467 0-6.3 1.06671-8.5 3.20001-2.134 2.1333-3.2 4.9333-3.2 8.4v31.8c0 3.4667 1.066 6.2667 3.2 8.4 2.2 2.1333 5.033 3.2 8.5 3.2 3.466 0 6.266-1.0667 8.4-3.2 2.133-2.1333 3.2-4.9333 3.2-8.4v-1.4c0-.6667.333-1 1-1l7.6.4c.666 0 1 .3333 1 1v.7c0 4-.9 7.5333-2.7 10.6-1.734 3.0667-4.2 5.4333-7.4 7.1s-6.9 2.5-11.1 2.5z"/><path d="m128.546 248.356c-2.045 0-3.807-.704-5.287-2.112-1.411-1.407-2.115-3.096-2.115-5.066 0-2.041.704-3.73 2.115-5.067 1.48-1.408 3.242-2.111 5.287-2.111 2.116 0 3.878.703 5.288 2.111 1.41 1.337 2.115 3.026 2.115 5.067 0 1.97-.705 3.659-2.115 5.066-1.41 1.408-3.172 2.112-5.288 2.112zm-2.933 60.644c-3.032 0-5.288-.914-6.768-2.744-1.481-1.9-1.939-4.399-1.375-7.495l5.711-31.878c.282-1.759-.423-2.639-2.115-2.639h-14.066l1.375-7.6h15.546c3.454 0 5.817.845 7.086 2.534 1.269 1.619 1.621 4.222 1.058 7.811l-5.711 31.667c-.283 1.83.423 2.744 2.115 2.744h16.18l-1.374 7.6zm17.006 0 7.403-41.695c.423-2.04-.387-3.061-2.432-3.061h-5.183l1.376-7.6h8.672c2.115 0 3.737.528 4.864 1.583 1.128 1.056 1.693 2.499 1.693 4.329v1.16h.423c1.692-2.322 3.983-4.292 6.873-5.911 2.961-1.618 6.522-2.427 10.682-2.427 4.372 0 7.896 1.02 10.576 3.06 2.749 1.971 4.618 4.681 5.604 8.129.988 3.377 1.094 7.107.318 11.189l-5.499 31.244h-8.884l5.393-30.4c.776-4.363.283-7.987-1.48-10.873-1.763-2.955-4.829-4.433-9.201-4.433-4.23 0-7.932 1.514-11.105 4.539-3.101 2.956-5.146 7.108-6.133 12.456l-5.077 28.711z"/></g><path d="m236.713 375c-9.209 0-16.764-1.782-22.667-5.345-5.902-3.683-10.152-8.494-12.749-14.433-2.598-6.058-3.66-12.709-3.188-19.955h15.583c-.944 7.602.65 13.897 4.781 18.886 4.132 4.87 10.448 7.306 18.948 7.306 8.381 0 15.11-1.96 20.187-5.88 5.194-4.039 7.791-9.622 7.791-16.749 0-3.563-.767-6.771-2.302-9.621-1.416-2.851-4.014-5.524-7.791-8.018-3.66-2.495-8.913-4.93-15.76-7.306-9.917-3.444-17.236-8.018-21.958-13.719-4.604-5.702-6.906-12.829-6.906-21.381 0-9.978 3.837-17.937 11.51-23.876 7.791-5.939 18.121-8.909 30.989-8.909 11.569 0 20.541 3.148 26.916 9.443 6.375 6.177 9.327 14.552 8.854 25.123h-15.583c.473-6.414-1.358-11.522-5.489-15.323-4.132-3.801-9.681-5.702-16.646-5.702-7.201 0-13.163 1.723-17.885 5.168-4.722 3.326-7.083 7.72-7.083 13.185 0 5.701 1.829 10.453 5.489 14.254 3.778 3.682 10.566 7.305 20.364 10.869 8.973 3.326 16.056 7.602 21.25 12.828 5.312 5.108 7.969 12.175 7.969 21.203 0 8.077-1.889 14.967-5.667 20.669-3.777 5.582-9.031 9.859-15.76 12.829-6.611 2.969-14.343 4.454-23.197 4.454z" fill="#dcdf3d"/><path d="m307.823 375 19.671-110.537h-33.494l2.481-13.463h81.519l-2.481 13.463h-33.139l-19.671 110.537z" fill="#dcdf3d"/><path d="m463 375 22.058-124h15.12l18.322 58.989 38.601-58.989h16.899l-22.058 124h-14.586l17.077-95.126-32.731 49.955h-11.918l-15.298-49.955-16.899 95.126z" fill="#dcdf3d"/><path d="m367 375 22.545-124h79.455l-2.545 13.463h-64.182l-7.455 41.274h58.727l-2.363 13.463h-58.727l-7.819 42.337h64.364l-2.545 13.463z" fill="#dcdf3d"/></svg>